<svg width="17" height="17" viewBox="0 0 17 17" fill="none" xmlns="http://www.w3.org/2000/svg">
<path d="M16.272 -3.33786e-06V0.479996C15.792 0.575996 15.424 0.743996 15.168 0.983995C14.928 1.224 14.768 1.6 14.688 2.112C14.608 2.608 14.568 3.312 14.568 4.224V16.992C14.328 16.96 14.064 16.944 13.776 16.944C13.504 16.944 13.208 16.96 12.888 16.992L2.256 5.376V12.288C2.256 13.36 2.296 14.184 2.376 14.76C2.472 15.32 2.688 15.728 3.024 15.984C3.376 16.224 3.928 16.4 4.68 16.512V16.992C4.36 16.96 3.944 16.944 3.432 16.944C2.92 16.928 2.44 16.92 1.992 16.92C1.64 16.92 1.28 16.928 0.911999 16.944C0.543999 16.944 0.239999 16.96 -1.19209e-06 16.992V16.512C0.495999 16.4 0.863999 16.232 1.104 16.008C1.344 15.768 1.504 15.392 1.584 14.88C1.664 14.368 1.704 13.664 1.704 12.768V2.544C1.704 1.952 1.664 1.52 1.584 1.248C1.504 0.959996 1.336 0.767996 1.08 0.671997C0.839999 0.559996 0.479999 0.495996 -1.19209e-06 0.479996V-3.33786e-06C0.239999 0.0159965 0.543999 0.0319963 0.911999 0.047996C1.28 0.0639958 1.64 0.0719957 1.992 0.0719957C2.392 0.0719957 2.784 0.0639958 3.168 0.047996C3.552 0.0319963 3.896 0.0159965 4.2 -3.33786e-06L14.016 10.368V4.704C14.016 3.632 13.968 2.816 13.872 2.256C13.792 1.68 13.584 1.264 13.248 1.008C12.912 0.751996 12.36 0.575996 11.592 0.479996V-3.33786e-06C11.912 0.0159965 12.328 0.0319963 12.84 0.047996C13.352 0.0639958 13.832 0.0719957 14.28 0.0719957C14.648 0.0719957 15.008 0.0639958 15.36 0.047996C15.728 0.0319963 16.032 0.0159965 16.272 -3.33786e-06Z" fill="#7F78E2"/>
</svg>
